<svg xmlns="http://www.w3.org/2000/svg" viewBox="0 0 640 480"><rect width="640" height="480" fill="#fff"/><g transform="rotate(-33.69 320 240)"><circle cx="320" cy="240" r="120" fill="#0047a0"/><path d="M200,240 A120,120 0 0 1 440,240 A60,60 0 0 0 320,240 A60,60 0 0 1 200,240 Z" fill="#cd2e3a"/></g><g fill="#000"><g transform="rotate(123.69 141.1 120.7)"><rect x="91.1" y="86.7" width="100" height="16"/><rect x="91.1" y="112.7" width="100" height="16"/><rect x="91.1" y="138.7" width="100" height="16"/></g><g transform="rotate(-123.69 498.9 120.7)"><rect x="448.9" y="86.7" width="44" height="16"/><rect x="504.9" y="86.7" width="44" height="16"/><rect x="448.9" y="112.7" width="100" height="16"/><rect x="448.9" y="138.7" width="44" height="16"/><rect x="504.9" y="138.7" width="44" height="16"/></g><g transform="rotate(56.31 141.1 359.3)"><rect x="91.1" y="325.3" width="100" height="16"/><rect x="91.1" y="351.3" width="44" height="16"/><rect x="147.1" y="351.3" width="44" height="16"/><rect x="91.1" y="377.3" width="100" height="16"/></g><g transform="rotate(-56.31 498.9 359.3)"><rect x="448.9" y="325.3" width="44" height="16"/><rect x="504.9" y="325.3" width="44" height="16"/><rect x="448.9" y="351.3" width="44" height="16"/><rect x="504.9" y="351.3" width="44" height="16"/><rect x="448.9" y="377.3" width="44" height="16"/><rect x="504.9" y="377.3" width="44" height="16"/></g></g></svg>
